<?xml version="1.0" encoding="UTF-8"?>
<svg id="SVGDoc" width="20" height="14" xmlns="http://www.w3.org/2000/svg" version="1.1" xmlns:xlink="http://www.w3.org/1999/xlink" xmlns:avocode="https://avocode.com/" viewBox="0 0 20 14"><defs></defs><desc>Generated with Avocode.</desc><g><g><title>Бургер</title><path d="M0.99998,-0.00005h18.00001c0.55227,0 1,0.44731 1,0.99993c0,0.55217 -0.44773,0.99993 -1,0.99993h-18.00001c-0.55227,0 -0.99998,-0.44776 -0.99998,-0.99993c0,-0.55262 0.44771,-0.99993 0.99998,-0.99993zM0.99998,5.99955h18.00001c0.55227,0 1,0.44776 1,1.00038c0,0.55217 -0.44773,0.99993 -1,0.99993h-18.00001c-0.55227,0 -0.99998,-0.44776 -0.99998,-0.99993c0,-0.55262 0.44771,-1.00038 0.99998,-1.00038zM0.99998,11.9996h18.00001c0.55227,0 1,0.44776 1,1.00038c0,0.55217 -0.44773,0.99993 -1,0.99993h-18.00001c-0.55227,0 -0.99998,-0.44776 -0.99998,-0.99993c0,-0.55262 0.44771,-1.00038 0.99998,-1.00038z" fill="#4ec83d" fill-opacity="1"></path></g></g></svg>