<?xml version="1.0" encoding="UTF-8"?>
<svg id="SVGDoc" width="13" height="13" xmlns="http://www.w3.org/2000/svg" version="1.1" xmlns:xlink="http://www.w3.org/1999/xlink" xmlns:avocode="https://avocode.com/" viewBox="0 0 13 13"><defs><clipPath id="ClipPath1034"><path d="M6.49999,-0.00037c3.58986,0 6.5,2.91025 6.5,6.50002c0,3.58977 -2.91014,6.50002 -6.5,6.50002c-3.58984,0 -6.5,-2.91025 -6.5,-6.50002c0,-3.58977 2.91016,-6.50002 6.5,-6.50002z" fill="#ffffff"></path></clipPath><clipPath id="ClipPath1041"><path d="M3.99984,6.99782v0v-0.99903v0h5.00004v0v0.99903v0z" fill="#ffffff"></path></clipPath></defs><desc>Generated with Avocode.</desc><g><g><title>Эллипс 4</title><path d="M6.49999,-0.00037c3.58986,0 6.5,2.91025 6.5,6.50002c0,3.58977 -2.91014,6.50002 -6.5,6.50002c-3.58984,0 -6.5,-2.91025 -6.5,-6.50002c0,-3.58977 2.91016,-6.50002 6.5,-6.50002z" fill-opacity="0" fill="#ffffff" stroke-dashoffset="0" stroke-dasharray="" stroke-linejoin="miter" stroke-linecap="butt" stroke-opacity="1" stroke="#808080" stroke-miterlimit="50" stroke-width="2" clip-path="url(&quot;#ClipPath1034&quot;)"></path></g><g><title>Фигура 2</title><path d="M3.99984,6.99782v0v-0.99903v0h5.00004v0v0.99903v0z" fill-opacity="0" fill="#ffffff" stroke-dashoffset="0" stroke-dasharray="" stroke-linejoin="miter" stroke-linecap="butt" stroke-opacity="1" stroke="#808080" stroke-miterlimit="50" stroke-width="2" clip-path="url(&quot;#ClipPath1041&quot;)"></path></g></g></svg>