<?xml version="1.0" encoding="UTF-8"?>
<svg id="SVGDoc" width="25" height="25" xmlns="http://www.w3.org/2000/svg" version="1.1" xmlns:xlink="http://www.w3.org/1999/xlink" xmlns:avocode="https://avocode.com/" viewBox="0 0 25 25"><defs><linearGradient id="LinearGradient1032" gradientUnits="userSpaceOnUse" x1="12.000000476837158" y1="24.999669102171538" x2="13.000000476837158" y2="-0.000020000001313746907"><stop stop-opacity="1" stop-color="#d9d9d9" offset="0"></stop><stop stop-opacity="1" stop-color="#fafafa" offset="1"></stop></linearGradient><clipPath id="ClipPath1050"><path d="M2.99999,-0.00002h19c1.65686,0 3.00001,1.34284 3.00001,2.9998v19.00009c0,1.65696 -1.34315,2.9998 -3.00001,2.9998h-19c-1.65686,0 -2.99999,-1.34284 -2.99999,-2.9998v-19.00009c0,-1.65696 1.34314,-2.9998 2.99999,-2.9998z" fill="#ffffff"></path></clipPath></defs><desc>Generated with Avocode.</desc><g><g><title>Прямоугольник 623 копия 3</title><path d="M2.99999,-0.00002h19c1.65686,0 3.00001,1.34284 3.00001,2.9998v19.00009c0,1.65696 -1.34315,2.9998 -3.00001,2.9998h-19c-1.65686,0 -2.99999,-1.34284 -2.99999,-2.9998v-19.00009c0,-1.65696 1.34314,-2.9998 2.99999,-2.9998z" fill="url(#LinearGradient1032)"></path><path d="M2.99999,-0.00002h19c1.65686,0 3.00001,1.34284 3.00001,2.9998v19.00009c0,1.65696 -1.34315,2.9998 -3.00001,2.9998h-19c-1.65686,0 -2.99999,-1.34284 -2.99999,-2.9998v-19.00009c0,-1.65696 1.34314,-2.9998 2.99999,-2.9998z" fill-opacity="0" fill="#ffffff" stroke-dashoffset="0" stroke-dasharray="" stroke-linejoin="miter" stroke-linecap="butt" stroke-opacity="1" stroke="#e6e6e6" stroke-miterlimit="50" stroke-width="2" clip-path="url(&quot;#ClipPath1050&quot;)"></path></g><g><title>Фигура 624 копия 3</title><path d="M8.96435,10.67074l0.70713,-0.70787l2.82846,2.82836l2.82846,-2.82836l0.70702,0.70787l-3.36388,3.36386l-0.1716,-0.17178l-0.1716,0.17178z" fill="#808080" fill-opacity="1"></path></g></g></svg>